<svg xmlns="http://www.w3.org/2000/svg" width="288" height="288" viewBox="0 0 288 288">
	<rect width="288" height="288" rx="52" fill="#12161b"/>
	<rect x="84" y="84" width="120" height="120" rx="20" fill="#1c2229" stroke="#3b82f6" stroke-width="6"/>
	<rect x="116" y="116" width="56" height="56" rx="8" fill="#3b82f6"/>
	<g stroke="#8a95a3" stroke-width="6" stroke-linecap="round">
		<line x1="108" y1="72" x2="108" y2="84"/><line x1="144" y1="72" x2="144" y2="84"/><line x1="180" y1="72" x2="180" y2="84"/>
		<line x1="108" y1="204" x2="108" y2="216"/><line x1="144" y1="204" x2="144" y2="216"/><line x1="180" y1="204" x2="180" y2="216"/>
		<line x1="72" y1="108" x2="84" y2="108"/><line x1="72" y1="144" x2="84" y2="144"/><line x1="72" y1="180" x2="84" y2="180"/>
		<line x1="204" y1="108" x2="216" y2="108"/><line x1="204" y1="144" x2="216" y2="144"/><line x1="204" y1="180" x2="216" y2="180"/>
	</g>
</svg>
